<svg width="450" height="612" viewBox="0 0 450 612" fill="none" xmlns="http://www.w3.org/2000/svg">
  <path d="M173.34 128.024L197.84 85.5892H246.84L271.34 128.024L246.84 170.46H197.84L173.34 128.024Z" fill="#D9A321"/>
  <path d="M338.34 417.024L362.84 374.589H411.84L436.34 417.024L411.84 459.46H362.84L338.34 417.024Z" fill="#D9A321"/>
  <path d="M255.34 461.024L279.84 418.589H328.84L353.34 461.024L328.84 503.46H279.84L255.34 461.024Z" fill="#D9A321"/>
  <path d="M173.34 512.024L197.84 469.589H246.84L271.34 512.024L246.84 554.46H197.84L173.34 512.024Z" fill="#D9A321"/>
  <path d="M91.3396 463.024L115.84 420.589H164.84L189.34 463.024L164.84 505.46H115.84L91.3396 463.024Z" fill="#D9A321"/>
  <path d="M173.34 417.024L197.84 374.589H246.84L271.34 417.024L246.84 459.46H197.84L173.34 417.024Z" fill="#D9A321"/>
  <path d="M255.34 368.024L279.84 325.589H328.84L353.34 368.024L328.84 410.46H279.84L255.34 368.024Z" fill="#D9A321"/>
  <path d="M338.34 319.024L362.84 276.589H411.84L436.34 319.024L411.84 361.46H362.84L338.34 319.024Z" fill="#D9A321"/>
  <path d="M335.34 224.024L359.84 181.589H408.84L433.34 224.024L408.84 266.46H359.84L335.34 224.024Z" fill="#D9A321"/>
  <path d="M255.34 273.024L279.84 230.589H328.84L353.34 273.024L328.84 315.46H279.84L255.34 273.024Z" fill="#D9A321"/>
  <path d="M173.34 319.024L197.84 276.589H246.84L271.34 319.024L246.84 361.46H197.84L173.34 319.024Z" fill="#D9A321"/>
  <path d="M91.3396 368.024L115.84 325.589H164.84L189.34 368.024L164.84 410.46H115.84L91.3396 368.024Z" fill="#D9A321"/>
  <path d="M8.3396 414.024L32.8396 371.589H81.8396L106.34 414.024L81.8396 456.46H32.8396L8.3396 414.024Z" fill="#D9A321"/>
  <path d="M255.34 177.024L279.84 134.589H328.84L353.34 177.024L328.84 219.46H279.84L255.34 177.024Z" fill="#D9A321"/>
  <path d="M173.34 224.024L197.84 181.589H246.84L271.34 224.024L246.84 266.46H197.84L173.34 224.024Z" fill="#D9A321"/>
  <path d="M91.3396 273.024L115.84 230.589H164.84L189.34 273.024L164.84 315.46H115.84L91.3396 273.024Z" fill="#D9A321"/>
  <path d="M8.3396 319.024L32.8396 276.589H81.8396L106.34 319.024L81.8396 361.46H32.8396L8.3396 319.024Z" fill="#D9A321"/>
  <path d="M8.3396 224.024L32.8396 181.589H81.8396L106.34 224.024L81.8396 266.46H32.8396L8.3396 224.024Z" fill="#D9A321"/>
  <path d="M91.3396 177.024L115.84 134.589H164.84L189.34 177.024L164.84 219.46H115.84L91.3396 177.024Z" fill="#D9A321"/>
  <path d="M60.8397 64.5244L109.34 126.024H95.3396C81.5063 108.524 53.5396 72.9244 52.3396 70.5244C24.124 51.5244 4.8396 24.5244 3.83971 21.5244C-6.16029 4.52441 9.33971 0.524397 10.8397 0.524397C28.4397 -0.675603 51.5064 42.6911 60.8397 64.5244Z" fill="#D9A321" stroke="#D9A321"/>
  <path d="M24.7794 15.805C16.7794 6.20496 12.1127 7.47163 10.7794 9.30496C-1.72064 13.9381 37.7794 50.805 39.7794 52.305C50.2794 59.305 47.2794 52.805 47.2794 51.305C42.7794 37.305 25.7794 17.305 24.7794 15.805Z" fill="white" stroke="#D9A321"/>
  <path d="M432.84 611.524C415.24 586.324 369.173 523.358 348.34 495.024L343.84 504.524C368.506 535.358 420.84 599.924 432.84 611.524Z" fill="#D9A321"/>
</svg>
