<svg width="3535" height="612" viewBox="0 0 3535 612" fill="none" xmlns="http://www.w3.org/2000/svg">
<path d="M730.748 479.483V342.399H612.796V479.483H550.34V172.399H612.796V289.483H730.748V172.399H793.409V479.483H730.748Z" fill="#D9A321"/>
<path d="M987.332 488.024C944.193 488.024 911.224 476.08 888.425 452.191C857.845 422.886 842.555 380.663 842.555 325.524C842.555 269.274 857.845 227.052 888.425 198.858C911.224 174.969 944.193 163.024 987.332 163.024C1030.47 163.024 1063.44 174.969 1086.24 198.858C1116.68 227.052 1131.9 269.274 1131.9 325.524C1131.9 380.663 1116.68 422.886 1086.24 452.191C1063.44 476.08 1030.47 488.024 987.332 488.024ZM1046.92 405.524C1061.53 386.774 1068.83 360.108 1068.83 325.524C1068.83 291.08 1061.46 264.483 1046.72 245.733C1032.11 226.844 1012.31 217.399 987.332 217.399C962.349 217.399 942.418 226.774 927.538 245.524C912.657 264.274 905.217 290.941 905.217 325.524C905.217 360.108 912.657 386.774 927.538 405.524C942.418 424.274 962.349 433.649 987.332 433.649C1012.31 433.649 1032.18 424.274 1046.92 405.524Z" fill="#D9A321"/>
<path d="M1424.32 479.483H1361.25L1237.98 261.358V479.483H1179.21V172.399H1245.35L1365.55 386.774V172.399H1424.32V479.483Z" fill="#D9A321"/>
<path d="M1693.4 345.316H1546.78V424.274H1713.88V479.483H1485.14V172.399H1706.51V226.774H1546.78V291.983H1693.4V345.316Z" fill="#D9A321"/>
<path d="M2006.71 172.399L1905.75 364.066V479.483H1842.68V364.066L1738.25 172.399H1812.58L1875.24 306.149L1935.24 172.399H2006.71Z" fill="#D9A321"/>
<path d="M2042.75 172.399H2105.82V424.274H2255.31V479.483H2042.75V172.399Z" fill="#D9A321"/>
<path d="M2432.64 488.024C2389.5 488.024 2356.53 476.08 2333.74 452.191C2303.16 422.886 2287.87 380.663 2287.87 325.524C2287.87 269.274 2303.16 227.052 2333.74 198.858C2356.53 174.969 2389.5 163.024 2432.64 163.024C2475.78 163.024 2508.75 174.969 2531.55 198.858C2561.99 227.052 2577.22 269.274 2577.22 325.524C2577.22 380.663 2561.99 422.886 2531.55 452.191C2508.75 476.08 2475.78 488.024 2432.64 488.024ZM2492.23 405.524C2506.84 386.774 2514.14 360.108 2514.14 325.524C2514.14 291.08 2506.77 264.483 2492.03 245.733C2477.42 226.844 2457.63 217.399 2432.64 217.399C2407.66 217.399 2387.73 226.774 2372.85 245.524C2357.97 264.274 2350.53 290.941 2350.53 325.524C2350.53 360.108 2357.97 386.774 2372.85 405.524C2387.73 424.274 2407.66 433.649 2432.64 433.649C2457.63 433.649 2477.49 424.274 2492.23 405.524Z" fill="#D9A321"/>
<path d="M2759.06 488.024C2715.92 488.024 2682.95 476.08 2660.15 452.191C2629.57 422.886 2614.28 380.663 2614.28 325.524C2614.28 269.274 2629.57 227.052 2660.15 198.858C2682.95 174.969 2715.92 163.024 2759.06 163.024C2802.2 163.024 2835.17 174.969 2857.96 198.858C2888.41 227.052 2903.63 269.274 2903.63 325.524C2903.63 380.663 2888.41 422.886 2857.96 452.191C2835.17 476.08 2802.2 488.024 2759.06 488.024ZM2818.65 405.524C2833.25 386.774 2840.56 360.108 2840.56 325.524C2840.56 291.08 2833.19 264.483 2818.44 245.733C2803.83 226.844 2784.04 217.399 2759.06 217.399C2734.07 217.399 2714.14 226.774 2699.26 245.524C2684.38 264.274 2676.94 290.941 2676.94 325.524C2676.94 360.108 2684.38 386.774 2699.26 405.524C2714.14 424.274 2734.07 433.649 2759.06 433.649C2784.04 433.649 2803.9 424.274 2818.65 405.524Z" fill="#D9A321"/>
<path d="M3009.7 479.483H2950.93V172.399H3042.67L3097.55 413.858L3152.02 172.399H3242.74V479.483H3183.97V271.774C3183.97 265.802 3184.04 257.469 3184.17 246.774C3184.31 235.941 3184.38 227.608 3184.38 221.774L3127.24 479.483H3066.02L3009.29 221.774C3009.29 227.608 3009.36 235.941 3009.5 246.774C3009.63 257.469 3009.7 265.802 3009.7 271.774V479.483Z" fill="#D9A321"/>
<path d="M3410.86 435.108C3425.74 435.108 3437.82 433.441 3447.1 430.108C3464.72 423.719 3473.52 411.844 3473.52 394.483C3473.52 384.344 3469.15 376.497 3460.42 370.941C3451.68 365.524 3437.96 360.733 3419.26 356.566L3387.31 349.274C3355.91 342.052 3334.2 334.205 3322.19 325.733C3301.85 311.566 3291.68 289.413 3291.68 259.274C3291.68 231.774 3301.51 208.927 3321.17 190.733C3340.83 172.538 3369.7 163.441 3407.79 163.441C3439.6 163.441 3466.7 172.052 3489.08 189.274C3511.61 206.358 3523.42 231.219 3524.51 263.858H3463.9C3462.8 245.386 3454.89 232.261 3440.14 224.483C3430.31 219.344 3418.09 216.774 3403.49 216.774C3387.24 216.774 3374.27 220.108 3364.58 226.774C3354.89 233.441 3350.04 242.747 3350.04 254.691C3350.04 265.663 3354.82 273.858 3364.38 279.274C3370.52 282.886 3383.62 287.122 3403.69 291.983L3455.71 304.691C3478.5 310.247 3495.71 317.677 3507.31 326.983C3525.33 341.427 3534.34 362.33 3534.34 389.691C3534.34 417.747 3523.76 441.08 3502.6 459.691C3481.58 478.163 3451.81 487.399 3413.32 487.399C3374 487.399 3343.08 478.302 3320.55 460.108C3298.03 441.774 3286.77 416.636 3286.77 384.691H3346.97C3348.88 398.719 3352.63 409.205 3358.23 416.149C3368.47 428.788 3386.01 435.108 3410.86 435.108Z" fill="#D9A321"/>
<path d="M173.34 128.024L197.84 85.5892H246.84L271.34 128.024L246.84 170.46H197.84L173.34 128.024Z" fill="#D9A321"/>
<path d="M338.34 417.024L362.84 374.589H411.84L436.34 417.024L411.84 459.46H362.84L338.34 417.024Z" fill="#D9A321"/>
<path d="M255.34 461.024L279.84 418.589H328.84L353.34 461.024L328.84 503.46H279.84L255.34 461.024Z" fill="#D9A321"/>
<path d="M173.34 512.024L197.84 469.589H246.84L271.34 512.024L246.84 554.46H197.84L173.34 512.024Z" fill="#D9A321"/>
<path d="M91.3396 463.024L115.84 420.589H164.84L189.34 463.024L164.84 505.46H115.84L91.3396 463.024Z" fill="#D9A321"/>
<path d="M173.34 417.024L197.84 374.589H246.84L271.34 417.024L246.84 459.46H197.84L173.34 417.024Z" fill="#D9A321"/>
<path d="M255.34 368.024L279.84 325.589H328.84L353.34 368.024L328.84 410.46H279.84L255.34 368.024Z" fill="#D9A321"/>
<path d="M338.34 319.024L362.84 276.589H411.84L436.34 319.024L411.84 361.46H362.84L338.34 319.024Z" fill="#D9A321"/>
<path d="M335.34 224.024L359.84 181.589H408.84L433.34 224.024L408.84 266.46H359.84L335.34 224.024Z" fill="#D9A321"/>
<path d="M255.34 273.024L279.84 230.589H328.84L353.34 273.024L328.84 315.46H279.84L255.34 273.024Z" fill="#D9A321"/>
<path d="M173.34 319.024L197.84 276.589H246.84L271.34 319.024L246.84 361.46H197.84L173.34 319.024Z" fill="#D9A321"/>
<path d="M91.3396 368.024L115.84 325.589H164.84L189.34 368.024L164.84 410.46H115.84L91.3396 368.024Z" fill="#D9A321"/>
<path d="M8.3396 414.024L32.8396 371.589H81.8396L106.34 414.024L81.8396 456.46H32.8396L8.3396 414.024Z" fill="#D9A321"/>
<path d="M255.34 177.024L279.84 134.589H328.84L353.34 177.024L328.84 219.46H279.84L255.34 177.024Z" fill="#D9A321"/>
<path d="M173.34 224.024L197.84 181.589H246.84L271.34 224.024L246.84 266.46H197.84L173.34 224.024Z" fill="#D9A321"/>
<path d="M91.3396 273.024L115.84 230.589H164.84L189.34 273.024L164.84 315.46H115.84L91.3396 273.024Z" fill="#D9A321"/>
<path d="M8.3396 319.024L32.8396 276.589H81.8396L106.34 319.024L81.8396 361.46H32.8396L8.3396 319.024Z" fill="#D9A321"/>
<path d="M8.3396 224.024L32.8396 181.589H81.8396L106.34 224.024L81.8396 266.46H32.8396L8.3396 224.024Z" fill="#D9A321"/>
<path d="M91.3396 177.024L115.84 134.589H164.84L189.34 177.024L164.84 219.46H115.84L91.3396 177.024Z" fill="#D9A321"/>
<path d="M60.8397 64.5244L109.34 126.024H95.3396C81.5063 108.524 53.5396 72.9244 52.3396 70.5244C24.124 51.5244 4.8396 24.5244 3.83971 21.5244C-6.16029 4.52441 9.33971 0.524397 10.8397 0.524397C28.4397 -0.675603 51.5064 42.6911 60.8397 64.5244Z" fill="#D9A321" stroke="#D9A321"/>
<path d="M24.7794 15.805C16.7794 6.20496 12.1127 7.47163 10.7794 9.30496C-1.72064 13.9381 37.7794 50.805 39.7794 52.305C50.2794 59.305 47.2794 52.805 47.2794 51.305C42.7794 37.305 25.7794 17.305 24.7794 15.805Z" fill="white" stroke="#D9A321"/>
<path d="M432.84 611.524C415.24 586.324 369.173 523.358 348.34 495.024L343.84 504.524C368.506 535.358 420.84 599.924 432.84 611.524Z" fill="#D9A321"/>
</svg>
